<svg width="44" height="44" viewBox="0 0 44 44" fill="none" xmlns="http://www.w3.org/2000/svg"><rect id="Social_icon" rx="22" width="44" height="44" fill="#FCFCFC" fill-opacity=".1"/><path id="Vector" d="M14.884 12.825v6.594c.92-1.197 2.023-1.8 3.303-1.8.659 0 1.249.138 1.778.41.531.27.928.618 1.196 1.04.27.425.451.891.55 1.405.098.512.147 1.307.147 2.386v7.05h-2.86v-6.35c0-1.26-.052-2.058-.16-2.397a1.536 1.536 0 00-.574-.808c-.276-.202-.619-.303-1.032-.303-.474 0-.9.13-1.269.387-.377.258-.648.644-.82 1.16-.175.517-.262 1.28-.26 2.29l-.002 6.022h-2.856V12.825h2.86-.001zm11.259 0v6.594c.921-1.197 2.023-1.8 3.302-1.8.657 0 1.251.138 1.782.41.528.27.925.618 1.192 1.04.269.423.456.9.55 1.405.098.512.147 1.307.147 2.386v7.05H30.26v-6.35c0-1.26-.055-2.058-.163-2.397a1.53 1.53 0 00-.576-.808c-.272-.202-.618-.303-1.032-.303-.473 0-.898.13-1.268.387-.372.258-.645.644-.819 1.16-.172.517-.259 1.28-.259 2.29v6.022h-2.856V12.825h2.856z" fill="#FCFCFC" fill-opacity="1" fill-rule="nonzero"/></svg>