<svg xmlns="http://www.w3.org/2000/svg" viewBox="0 0 40 40"><defs><clipPath id="clip-path"><circle cx="20" cy="20" r="20" fill="none"/></clipPath><style>.cls-4{fill:#c7483d}.cls-6{fill:#c7483e}</style></defs><g id="Capa_2" data-name="Capa 2"><g clip-path="url(#clip-path)" id="Capa_1-2" data-name="Capa 1"><path d="M57.36 20v19.25c0 .27-.08.35-.66.35h-73.45c-.54 0-.63-.06-.63-.33V.74c0-.26.06-.34.62-.34Q20 .4 56.79.38c.51 0 .59.06.59.32q-.03 9.65-.02 19.3z" fill="#fff"/><path class="cls-4" d="M40.56 24H24.83c-.8 0-.93.24-.93 1v13.84c0 .64-.17.81-.81.8q-3.16-.06-6.33 0c-.58 0-.74-.15-.73-.73V25c0-.72-.13-1-.93-1h-31.45c-.61 0-.83-.09-.81-.77.05-2.13 0-4.27 0-6.4 0-.64.19-.74.77-.74h31.46c.94 0 .94 0 .94-.92v-14c0-.63.18-.76.77-.75h6.34c.59 0 .77.12.77.75v14.19c0 .66.19.8.82.8h31.67c.63 0 .87.11.85.81-.06 2.11-.05 4.22 0 6.33 0 .68-.2.78-.81.78C51.14 24 45.85 24 40.56 24z"/><path d="M-10.2.43H13c.36 0 .51.09.51.48v11.5L-10.23.56zm60.43.13L26.68 12.34c-.22-.16-.14-.35-.14-.5V1.13c0-.36-.09-.71.51-.71h23.16zM-9.9 39.55c.1-.23.33-.26.51-.35l22.16-11.09c.51-.26.72-.32.71.4v10.4c0 .46-.06.7-.62.7H-9.77a.34.34 0 01-.13-.06zm59.95.05H27.19c-.5 0-.67-.14-.67-.66V28.4c0-.43 0-.65.53-.39q11.3 5.67 22.62 11.32a3.5 3.5 0 01.38.27z" fill="#347fc0"/><path class="cls-6" d="M27.51 13.39l1.55-.79L52.91.69a3 3 0 013.38.48c.42.39.47.58-.13.88-4.76 2.35-9.49 4.73-14.24 7.11l-8.12 4.06a2.69 2.69 0 01-1.25.31h-5z"/><path class="cls-4" d="M-16.45 38.31l.64-.34 22-11a3 3 0 011.38-.34h5c-.06.29-.32.29-.49.38l-24.63 12.31a3.19 3.19 0 01-3.9-1.01z"/><path class="cls-6" d="M33.35 26.65h5.45a1.48 1.48 0 01.68.22q8.6 4.3 17.2 8.59c.4.2.61.41.55.87a6.93 6.93 0 01-.11 1c-.32 1.08-.41 1.13-1.4.64L34 27.1l-.64-.33zM6.62 13.52H1.36a2.29 2.29 0 01-1-.31Q-8 9-16.32 4.91c-.59-.29-.86-.62-.76-1.26v-.73c.14-1.11.35-1.21 1.33-.72L5.92 13a1.24 1.24 0 01.7.52z"/></g></g></svg>