<svg width="44" height="44" viewBox="0 0 44 44" fill="none" xmlns="http://www.w3.org/2000/svg"><defs><clipPath id="clip42_1113"><path id="ri:linkedin-fill" transform="translate(11 11)" fill="#fff" fill-opacity="0" d="M0 0h22v22H0z"/></clipPath></defs><rect id="Social_icon" rx="22" width="44" height="44" fill="#FCFCFC" fill-opacity=".12"/><path id="ri:linkedin-fill" transform="translate(11 11)" fill="#FFF" fill-opacity="0" d="M0 0h22v22H0z"/><g clip-path="url(#clip42_1113)"><path id="Vector" d="M17.361 14.583a1.834 1.834 0 11-3.668-.002 1.834 1.834 0 013.668.002zm.055 3.19H13.75V29.25h3.666V17.773zm5.794 0h-3.65V29.25h3.612v-6.023c0-3.354 4.373-3.666 4.373 0v6.023h3.62v-7.27c0-5.655-6.471-5.444-7.993-2.667l.037-1.54z" fill="#FCFCFC" fill-opacity="1" fill-rule="nonzero"/></g></svg>