<svg width="40.475" height="44" viewBox="0 0 40.475 44" fill="none" xmlns="http://www.w3.org/2000/svg"><defs><linearGradient id="paint_linear_12_1248_0" x1="33.505" y1="35.815" x2="18.662" y2="3.43" gradientUnits="userSpaceOnUse"><stop stop-color="#6BFFFE"/><stop offset=".29" stop-color="#64F5FE"/><stop offset=".42" stop-color="#3EBAFB"/><stop offset=".5" stop-color="#145CEF"/></linearGradient><linearGradient id="paint_linear_12_1249_0" x1="-5.814" y1="23.565" x2="18" y2="24.777" gradientUnits="userSpaceOnUse"><stop stop-color="#7359DE"/><stop offset=".13" stop-color="#6D52D9"/><stop offset=".28" stop-color="#6549D4"/><stop offset=".45" stop-color="#5F43CD"/><stop offset=".57" stop-color="#5E42CC"/><stop offset=".67" stop-color="#4428B5"/><stop offset=".75" stop-color="#391EA8"/></linearGradient><linearGradient id="paint_linear_12_1250_0" x1=".798" y1="15.096" x2="18.98" y2="16.021" gradientUnits="userSpaceOnUse"><stop stop-color="#6549D4"/><stop offset=".23" stop-color="#B8A9F4"/><stop offset=".65" stop-color="#D0C7F2"/><stop offset="1" stop-color="#3C16D2"/></linearGradient><linearGradient id="paint_linear_12_1251_0" x1="18.644" y1="21.932" x2="21.383" y2="22.071" gradientUnits="userSpaceOnUse"><stop stop-color="#1A5EF0"/><stop offset=".23" stop-color="#125EF1"/><stop offset=".99" stop-color="#69FCFE"/></linearGradient></defs><path id="Vector" d="M19.757 0l.042 18.637v4.023l-.056 20.718a.613.613 0 001.148.306l19.584-30.322L19.757 0z" fill="url(#paint_linear_12_1248_0)" fill-opacity="1" fill-rule="nonzero"/><path id="Vector" d="M19.757 0L.11 30.392a.598.598 0 00.765.877l15.171-6.849 3.696-1.663L19.757 0z" fill="url(#paint_linear_12_1249_0)" fill-opacity="1" fill-rule="nonzero"/><path id="Vector" d="M.027 30.9a.59.59 0 01.084-.508L19.757 0v.759L.11 31.109a.487.487 0 01-.084-.21z" fill="url(#paint_linear_12_1250_0)" fill-opacity="1" fill-rule="nonzero"/><path id="Vector" d="M20.133 43.972a.618.618 0 01-.404-.556L19.753 0l.436.306L20.293 44a.685.685 0 01-.16-.028z" fill="url(#paint_linear_12_1251_0)" fill-opacity="1" fill-rule="nonzero"/></svg>