<svg width="162.246" height="41" viewBox="0 0 162.246 41" fill="none" xmlns="http://www.w3.org/2000/svg"><defs><linearGradient id="paint_linear_42_1016_0" x1="31.179" y1="33.332" x2="17.353" y2="3.165" gradientUnits="userSpaceOnUse"><stop stop-color="#6BFFFE"/><stop offset=".29" stop-color="#64F5FE"/><stop offset=".42" stop-color="#3EBAFB"/><stop offset=".5" stop-color="#145CEF"/></linearGradient><linearGradient id="paint_linear_42_1017_0" x1="-4.075" y1="20.599" x2="18.103" y2="21.729" gradientUnits="userSpaceOnUse"><stop stop-color="#5CE1A9"/><stop offset=".06" stop-color="#50DFA5"/><stop offset=".16" stop-color="#30D899"/><stop offset=".28" stop-color="#00CE88"/><stop offset=".43" stop-color="#00CB87"/><stop offset=".53" stop-color="#00C284"/><stop offset=".61" stop-color="#00B380"/><stop offset=".69" stop-color="#009D79"/><stop offset=".75" stop-color="#008973"/></linearGradient><linearGradient id="paint_linear_42_1018_0" x1=".739" y1="14.01" x2="17.674" y2="14.869" gradientUnits="userSpaceOnUse"><stop stop-color="#5CE1A9"/><stop offset=".23" stop-color="#C8FFEB"/><stop offset=".65" stop-color="#C8FFEB"/><stop offset="1" stop-color="#008973"/></linearGradient><linearGradient id="paint_linear_42_1019_0" x1="17.381" y1="20.416" x2="19.717" y2="20.545" gradientUnits="userSpaceOnUse"><stop stop-color="#1A5EF0"/><stop offset=".23" stop-color="#125EF1"/><stop offset=".99" stop-color="#69FCFE"/></linearGradient></defs><path id="Vector" d="M18.396 0v21.103l-.047 19.298a.566.566 0 001.067.29l18.27-28.263L18.395 0z" fill="url(#paint_linear_42_1016_0)" fill-opacity="1" fill-rule="nonzero"/><path id="Vector" d="M18.396 0L.072 28.295a.557.557 0 00.706.785l14.132-6.375 3.439-1.57L18.396 0z" fill="url(#paint_linear_42_1017_0)" fill-opacity="1" fill-rule="nonzero"/><path id="Vector" d="M.025 28.687a.515.515 0 01.079-.47L18.396.032v.705L.127 28.922a.367.367 0 01-.102-.235z" fill="url(#paint_linear_42_1018_0)" fill-opacity="1" fill-rule="nonzero"/><path id="Vector" d="M18.651 40.945a.518.518 0 01-.243-.201.594.594 0 01-.095-.317L18.355 0l.347.268.064 40.604a.08.08 0 01-.115.073z" fill="url(#paint_linear_42_1019_0)" fill-opacity="1" fill-rule="nonzero"/><path id="Vector" d="M46.685 29.644v-18.67h6.163l4.397 16.487h.424V10.975h3.14v18.669h-6.1l-4.404-16.487h-.448v16.487h-3.172zm24.158.37a7.552 7.552 0 01-3.533-.785 6.07 6.07 0 01-2.45-2.355 6.94 6.94 0 01-.895-3.611v-.409a7.019 7.019 0 01.895-3.627 5.966 5.966 0 012.45-2.355 7.649 7.649 0 013.533-.785 7.57 7.57 0 013.525.785 5.928 5.928 0 012.434 2.355c.62 1.106.93 2.36.894 3.627v.424a6.939 6.939 0 01-.894 3.612 6.029 6.029 0 01-2.434 2.355 7.479 7.479 0 01-3.525.77zm0-2.716a3.683 3.683 0 002.748-1.084 4.092 4.092 0 001.067-3.022v-.267a4.122 4.122 0 00-1.067-3.03 4.035 4.035 0 00-5.496 0 4.12 4.12 0 00-1.068 3.03v.267a4.087 4.087 0 001.068 3.022 3.675 3.675 0 002.748 1.084zm10.112 2.346V16.47h3.007v1.523h.455a2.06 2.06 0 01.99-1.201 3.407 3.407 0 011.648-.377h1.57v2.724H87a3.22 3.22 0 00-2.16.707 2.702 2.702 0 00-.824 2.167v7.631h-3.061zm15.325.37a5.93 5.93 0 01-2.984-.785 5.715 5.715 0 01-2.214-2.308 7.555 7.555 0 01-.785-3.651v-.416a7.585 7.585 0 01.785-3.658 5.706 5.706 0 012.199-2.3 5.926 5.926 0 012.999-.786 6.402 6.402 0 012.08.298c.503.156.97.41 1.374.746.318.28.584.616.785.99h.448v-7.168h3.046v18.669h-2.96V27.91h-.455a4.595 4.595 0 01-1.43 1.452 5.22 5.22 0 01-2.888.652zm.91-2.662a3.75 3.75 0 002.748-1.083 4.152 4.152 0 001.091-3.077v-.267a4.13 4.13 0 00-1.075-3.094 3.736 3.736 0 00-2.756-1.067 3.807 3.807 0 00-2.74 1.067 4.09 4.09 0 00-1.107 3.094v.267a4.107 4.107 0 001.107 3.077 3.786 3.786 0 002.732 1.084zm16.895 2.662a7.46 7.46 0 01-3.47-.785 5.958 5.958 0 01-2.433-2.316 7.058 7.058 0 01-.895-3.65v-.41a7.058 7.058 0 01.895-3.65 5.975 5.975 0 012.433-2.355 7.462 7.462 0 013.47-.785 7.328 7.328 0 013.243.667 5.735 5.735 0 012.167 1.83 6.03 6.03 0 011.067 2.598l-2.959.612a3.917 3.917 0 00-.503-1.507 2.893 2.893 0 00-1.138-1.076 3.693 3.693 0 00-1.798-.4 4.086 4.086 0 00-1.955.463 3.285 3.285 0 00-1.366 1.405 4.713 4.713 0 00-.487 2.238v.267c-.025.77.142 1.533.487 2.222.308.592.783 1.08 1.366 1.405.6.324 1.273.488 1.955.48a3.347 3.347 0 002.465-.841 3.8 3.8 0 001.052-2.175l2.96.691a6.826 6.826 0 01-1.146 2.536 5.96 5.96 0 01-2.167 1.83 7.22 7.22 0 01-3.243.706zm15.789 0a7.55 7.55 0 01-3.533-.785 6.074 6.074 0 01-2.45-2.355 6.945 6.945 0 01-.895-3.611v-.409a7.022 7.022 0 01.895-3.627 5.965 5.965 0 012.45-2.355 7.648 7.648 0 013.533-.785 7.571 7.571 0 013.525.785 5.92 5.92 0 012.433 2.355c.621 1.106.93 2.36.895 3.627v.424a6.934 6.934 0 01-.895 3.612 6.028 6.028 0 01-2.433 2.355 7.48 7.48 0 01-3.525.77zm0-2.716a3.682 3.682 0 002.747-1.084 4.092 4.092 0 001.092-3.023v-.266a4.112 4.112 0 00-1.068-3.03 4.035 4.035 0 00-5.496 0 4.125 4.125 0 00-1.067 3.03v.267a4.093 4.093 0 001.067 3.022 3.678 3.678 0 002.725 1.084zm10.119 2.346V16.47H143v1.523h.456c.16-.514.515-.945.989-1.201a3.407 3.407 0 011.649-.377h1.57v2.724h-1.649a3.229 3.229 0 00-2.167.707 2.702 2.702 0 00-.824 2.167v7.631h-3.031zm15.961.37a6.955 6.955 0 01-3.477-.84 5.882 5.882 0 01-2.356-2.356 7.283 7.283 0 01-.84-3.587v-.322a7.431 7.431 0 01.785-3.596 5.906 5.906 0 012.356-2.355 6.88 6.88 0 013.438-.84 6.587 6.587 0 013.36.84 5.848 5.848 0 012.238 2.355 7.51 7.51 0 01.785 3.549v1.09h-9.892a3.332 3.332 0 001.091 2.482c.703.626 1.619.96 2.56.934a3.187 3.187 0 002.214-.66 4.48 4.48 0 001.122-1.499l2.536 1.303a8.21 8.21 0 01-1.083 1.57 5.8 5.8 0 01-1.877 1.382 6.694 6.694 0 01-2.96.55zm-3.548-8.4h6.744a2.923 2.923 0 00-.997-2.073 3.392 3.392 0 00-2.308-.785 3.218 3.218 0 00-3.439 2.85v.007z" fill="#FCFCFC" fill-opacity="1" fill-rule="nonzero"/></svg>