<svg width="171.427" height="45" viewBox="0 0 171.427 45" fill="none" xmlns="http://www.w3.org/2000/svg"><defs><linearGradient id="paint_linear_42_1131_0" x1="33.442" y1="36.288" x2="18.627" y2="3.964" gradientUnits="userSpaceOnUse"><stop stop-color="#6BFFFE"/><stop offset=".29" stop-color="#64F5FE"/><stop offset=".42" stop-color="#3EBAFB"/><stop offset=".5" stop-color="#145CEF"/></linearGradient><linearGradient id="paint_linear_42_1132_0" x1="-5.803" y1="24.063" x2="17.967" y2="25.272" gradientUnits="userSpaceOnUse"><stop stop-color="#F47616"/><stop offset=".13" stop-color="#F47216"/><stop offset=".26" stop-color="#F46716"/><stop offset=".28" stop-color="#F46516"/><stop offset=".45" stop-color="#F26216"/><stop offset=".57" stop-color="#EA5916"/><stop offset=".67" stop-color="#DE4A16"/><stop offset=".75" stop-color="#D03916"/></linearGradient><linearGradient id="paint_linear_42_1133_0" x1=".797" y1="15.61" x2="18.945" y2="16.532" gradientUnits="userSpaceOnUse"><stop stop-color="#F47616"/><stop offset=".23" stop-color="#F4DBA9"/><stop offset=".65" stop-color="#F2E4C7"/><stop offset="1" stop-color="#D23B16"/></linearGradient><linearGradient id="paint_linear_42_1134_0" x1="18.609" y1="22.432" x2="21.342" y2="22.571" gradientUnits="userSpaceOnUse"><stop stop-color="#1A5EF0"/><stop offset=".23" stop-color="#125EF1"/><stop offset=".99" stop-color="#69FCFE"/></linearGradient></defs><path id="Vector" d="M19.72.541l.041 18.602v4.015l-.055 20.679a.612.612 0 001.146.306l19.546-30.265L19.72.54z" fill="url(#paint_linear_42_1131_0)" fill-opacity="1" fill-rule="nonzero"/><path id="Vector" d="M19.72.542L.11 30.876a.598.598 0 00.765.875l15.142-6.835 3.689-1.66L19.72.542z" fill="url(#paint_linear_42_1132_0)" fill-opacity="1" fill-rule="nonzero"/><path id="Vector" d="M.027 31.383a.59.59 0 01.084-.507L19.72.542v.757L.11 31.592a.488.488 0 01-.083-.209z" fill="url(#paint_linear_42_1133_0)" fill-opacity="1" fill-rule="nonzero"/><path id="Vector" d="M20.095 44.43a.618.618 0 01-.403-.554L19.715.541l.435.305.105 43.611a.682.682 0 01-.16-.027z" fill="url(#paint_linear_42_1134_0)" fill-opacity="1" fill-rule="nonzero"/><path id="Vector" d="M50.5 13.81v-.696h3.05v.695c0 2.848 1.82 4.216 4.64 4.216 2.82 0 4.3-1.34 4.3-3.215 0-1.876-1.599-2.564-4.217-3.161l-1.056-.257c-3.841-.882-6.252-2.25-6.252-5.752 0-3.5 2.779-5.64 6.89-5.64 4.113 0 7.232 2.14 7.232 6.321V7.35h-3.05V6.321c0-2.563-1.68-3.612-4.167-3.612s-3.848 1.049-3.848 2.848 1.34 2.528 3.876 3.098l1.048.257c3.849.855 6.606 2.25 6.606 5.835 0 3.584-2.875 5.98-7.342 5.98-4.466 0-7.71-2.445-7.71-6.918zm17.511-7.517h2.931l1.765 12.073h.458L75.61 6.293h4.758l2.418 12.073h.458l1.764-12.073h2.932l-2.39 14.038h-4.897l-2.452-12.01h-.451l-2.425 12.045H70.4L68.011 6.293zm22.867-3.896A2.023 2.023 0 0193.276.383 2.022 2.022 0 0192.9 4.39a1.928 1.928 0 01-1.887-1.212 1.923 1.923 0 01-.134-.781zm.542 3.896h2.931v14.039H91.42V6.293zm9.822 2.48H97.31v-2.48h3.932v-3.07A2.61 2.61 0 01102 1.162a2.62 2.62 0 012.062-.76h3.612v2.446H105a.749.749 0 00-.827.855v2.59h4.043v2.48h-4.043v11.558h-2.931V8.773zm12.073 8.739V8.773h-3.869v-2.48h3.869v-4.64h2.931v4.64h4.168v2.48h-4.168v8.225c0 .569.257.854.799.854h2.931v2.48h-3.869a2.597 2.597 0 01-2.792-2.82zM53.973 41.774v-8.738h-3.87V30.55h3.87v-4.64h2.931v4.64h4.168v2.48h-4.168v8.231c0 .563.257.848.8.848h2.93v2.48h-3.869a2.6 2.6 0 01-2.792-2.814zm9.315-4.014v-.341c0-4.383 2.876-7.259 7.002-7.259 4.126 0 6.772 2.848 6.772 7.12v1.112H66.275a3.983 3.983 0 004.167 4.035 3.756 3.756 0 003.786-2.445l2.445 1.25a6.572 6.572 0 01-6.293 3.758c-4.251 0-7.092-2.875-7.092-7.23zm10.815-1.62c-.167-2.083-1.653-3.389-3.841-3.389a3.696 3.696 0 00-3.96 3.39h7.801zm4.675 1.62v-.369c0-4.529 3.126-7.23 7.203-7.23 4.078 0 6.314 2.451 6.856 5.41l-2.848.598a3.677 3.677 0 00-3.952-3.39c-2.452 0-4.328 1.709-4.328 4.668v.257c0 2.959 1.876 4.668 4.328 4.668a3.757 3.757 0 004.042-3.383l2.849.653c-.695 2.931-2.904 5.348-6.947 5.348-4.042 0-7.203-2.674-7.203-7.23zm16.4-13.094h2.931v7.884h.452c.542-1.049 1.736-2.216 4.418-2.216 3.188 0 5.494 2.216 5.494 5.835v8.426h-2.931v-8.197c0-2.452-1.285-3.563-3.418-3.563-2.424 0-4.015 1.653-4.015 4.667v7.093h-2.93V24.666zm16.942 5.884h2.847v2.084h.452c.542-1.14 1.764-2.334 4.473-2.334 3.189 0 5.495 2.216 5.495 5.835v8.425h-2.931v-8.196c0-2.452-1.286-3.564-3.418-3.564-2.424 0-4.015 1.654-4.015 4.668v7.092h-2.903V30.55zm16.4-3.89a2.017 2.017 0 011.228-1.887 2.019 2.019 0 012.773 1.455 2.018 2.018 0 01-.854 2.083 2.022 2.022 0 01-1.126.343 1.932 1.932 0 01-1.449-.552 1.93 1.93 0 01-.572-1.442zm.542 3.897h2.931v14.039h-2.931V30.557zm6.05 7.203v-.369c0-4.529 3.132-7.23 7.203-7.23 4.07 0 6.321 2.451 6.856 5.41l-2.841.598a3.688 3.688 0 00-2.531-3.22 3.682 3.682 0 00-1.429-.17c-2.452 0-4.327 1.709-4.327 4.668v.257c0 2.959 1.875 4.668 4.327 4.668a3.753 3.753 0 004.043-3.383l2.848.653c-.653 2.931-2.904 5.348-6.946 5.348-4.043 0-7.203-2.674-7.203-7.23zm16.045 2.792c0-2.848 2.279-4.328 5.349-4.328h4.307v-.91c0-1.625-.966-2.702-3.015-2.702-2.049 0-3.022 1.05-3.362 2.556l-2.73-.882c.695-2.216 2.528-4.126 6.12-4.126 3.591 0 5.862 1.938 5.862 5.356v5.779c0 .57.285.854.799.854h1.188v2.445h-2.223c-1.306 0-2.216-.743-2.216-1.91v-.083h-.423c-.424.91-1.452 2.39-4.356 2.39-2.903 0-5.3-1.592-5.3-4.44zm9.656-1.764v-.286h-4.099c-1.57 0-2.591.695-2.591 1.966 0 1.272 1.021 2.084 2.779 2.084 2.285.021 3.911-1.403 3.911-3.764zm7.682-14.122h2.932v19.929h-2.932V24.666z" fill="#FCFCFC" fill-opacity="1" fill-rule="nonzero"/></svg>