<svg width="44" height="44" viewBox="0 0 44 44" fill="none" xmlns="http://www.w3.org/2000/svg"><defs><clipPath id="clip42_1103"><path id="mingcute:telegram-fill" transform="translate(11 11)" fill="#fff" fill-opacity="0" d="M0 0h22v22H0z"/></clipPath></defs><rect id="Social_icon" rx="22" width="44" height="44" fill="#FCFCFC" fill-opacity=".1"/><path id="mingcute:telegram-fill" transform="translate(11 11)" fill="#FFF" fill-opacity="0" d="M0 0h22v22H0z"/><g clip-path="url(#clip42_1103)"><path id="Vector" d="M28.689 14.762c.226-.095.474-.128.718-.095a1.374 1.374 0 011.172 1.585l-2.08 12.611c-.2 1.217-1.535 1.914-2.651 1.308-.933-.507-2.32-1.288-3.566-2.103-.623-.408-2.533-1.714-2.298-2.643.202-.795 3.41-3.782 5.243-5.557.72-.698.392-1.1-.458-.459-2.111 1.594-5.498 4.016-6.618 4.698-.988.602-1.504.704-2.12.602-1.123-.187-2.166-.477-3.016-.83-1.15-.476-1.094-2.057-.001-2.517l15.675-6.6z" fill="#FCFCFC" fill-opacity="1" fill-rule="evenodd"/></g></svg>