<svg width="44" height="44" viewBox="0 0 44 44" fill="none" xmlns="http://www.w3.org/2000/svg"><defs><clipPath id="clip42_1110"><path id="basil:vk-solid" transform="translate(10 10)" fill="#fff" fill-opacity="0" d="M0 0h24v24H0z"/></clipPath></defs><rect id="Social_icon" rx="22" width="44" height="44" fill="#FCFCFC" fill-opacity=".12"/><path id="basil:vk-solid" transform="translate(10 10)" fill="#FFF" fill-opacity="0" d="M0 0h24v24H0z"/><g clip-path="url(#clip42_1110)"><path id="Vector" d="M31.503 28.381h-2.281c-.863 0-1.123-.699-2.67-2.247-1.352-1.303-1.923-1.465-2.265-1.465-.473 0-.602.13-.602.781v2.052c0 .555-.18.88-1.63.88a8.898 8.898 0 01-6.955-4.17 18.181 18.181 0 01-3.6-7.558c0-.342.13-.652.782-.652h2.28c.586 0 .797.261 1.027.864 1.107 3.258 2.996 6.092 3.763 6.092.294 0 .422-.13.422-.863V18.74c-.097-1.53-.91-1.66-.91-2.214a.563.563 0 01.585-.523h3.584c.49 0 .652.244.652.83v4.53c0 .49.21.651.358.651.294 0 .52-.162 1.059-.7a18.754 18.754 0 002.802-4.66.982.982 0 01.993-.65h2.281c.684 0 .829.342.684.83a28.463 28.463 0 01-3.062 5.262c-.246.375-.344.57 0 1.01.226.342 1.026 1.01 1.563 1.645.782.78 1.431 1.682 1.922 2.67.196.636-.131.961-.782.961z" fill="#FCFCFC" fill-opacity="1" fill-rule="evenodd"/></g></svg>