<svg width="44" height="44" viewBox="0 0 44 44" fill="none" xmlns="http://www.w3.org/2000/svg"><defs><clipPath id="clip42_1107"><path id="Frame" transform="translate(9 9)" fill="#fff" fill-opacity="0" d="M0 0h26v26H0z"/></clipPath></defs><rect id="Social_icon" rx="22" width="44" height="44" fill="#FCFCFC" fill-opacity=".1"/><path id="Frame" transform="translate(9 9)" fill="#FFF" fill-opacity="0" d="M0 0h26v26H0z"/><g clip-path="url(#clip42_1107)" fill="#FCFCFC" fill-rule="evenodd"><path id="Vector" d="M11.171 21.675a10.951 10.951 0 000 .65c4.39.055 6.856.355 8.503 2.001 1.646 1.647 1.947 4.114 2.001 8.503a11.298 11.298 0 00.65 0c.054-4.389.355-6.856 2.001-8.503 1.647-1.646 4.114-1.946 8.503-2.001a11.31 11.31 0 000-.65c-4.39-.054-6.856-.354-8.503-2-1.646-1.647-1.947-4.115-2.001-8.503a10.944 10.944 0 00-.65 0c-.055 4.388-.355 6.856-2.001 8.502-1.647 1.647-4.114 1.947-8.503 2.002zM21.554 9v.006a13.616 13.616 0 01.776 0V9h-.776zM9 21.554h.006a12.6 12.6 0 00-.006.388v-.388zm.006.776A13.194 13.194 0 019 21.942v.388h.006zm12.548 12.55v.006h.776v-.006a12.821 12.821 0 01-.776 0zm13.33-12.549h-.005c.004-.129.005-.258.005-.388v.388zm0-.776v.388c0-.13-.002-.259-.005-.388h.005z"/></g></svg>