<svg width="18.000000" height="18.000000" viewBox="0 0 18 18" fill="none" xmlns="http://www.w3.org/2000/svg" xmlns:xlink="http://www.w3.org/1999/xlink">
	<desc>
			Created with Pixso.
	</desc>
	<defs>
		<clipPath id="clip42_782">
			<rect id="solar:notification-unread-bold" width="18.000000" height="18.000000" fill="white" fill-opacity="0"/>
		</clipPath>
	</defs>
	<g clip-path="url(#clip42_782)">
		<path id="Vector" d="M9 16.5C5.46448 16.5 3.69678 16.5 2.59802 15.4012C1.5 14.304 1.5 12.5355 1.5 9C1.5 5.46448 1.5 3.69678 2.59802 2.59802C3.69751 1.5 5.46448 1.5 9 1.5C10.0493 1.5 10.9425 1.5 11.709 1.5285C11.1448 2.17285 10.8467 3.00757 10.8751 3.86353C10.9034 4.71948 11.2562 5.53265 11.8618 6.13824C12.4673 6.74384 13.2805 7.09656 14.1365 7.12488C14.9924 7.15326 15.8271 6.85516 16.4715 6.29102C16.5 7.0575 16.5 7.95074 16.5 9C16.5 12.5355 16.5 14.3032 15.4012 15.4012C14.304 16.5 12.5355 16.5 9 16.5Z" fill="#145CEF" fill-opacity="1.000000" fill-rule="nonzero"/>
		<path id="Vector" d="M16.5 3.75C16.5 4.34674 16.2629 4.91901 15.841 5.341C15.419 5.76294 14.8467 6 14.25 6C13.6533 6 13.081 5.76294 12.659 5.341C12.2371 4.91901 12 4.34674 12 3.75C12 3.15326 12.2371 2.58099 12.659 2.159C13.081 1.73706 13.6533 1.5 14.25 1.5C14.8467 1.5 15.419 1.73706 15.841 2.159C16.2629 2.58099 16.5 3.15326 16.5 3.75Z" fill="#145CEF" fill-opacity="1.000000" fill-rule="nonzero"/>
	</g>
</svg>
