<svg width="16.000000" height="16.000000" viewBox="0 0 16 16" fill="none" xmlns="http://www.w3.org/2000/svg" xmlns:xlink="http://www.w3.org/1999/xlink">
	<desc>
			Created with Pixso.
	</desc>
	<defs>
		<clipPath id="clip42_568">
			<rect id="Social_btn_icon" width="16.000000" height="16.000000" fill="white" fill-opacity="0"/>
		</clipPath>
	</defs>
	<g clip-path="url(#clip42_568)">
		<path id="Vector" d="M8.00006 0.987305C4.12885 0.987305 0.986938 4.12915 0.986938 8.00049C0.986938 11.8716 4.12885 15.0137 8.00006 15.0137C11.8713 15.0137 15.0132 11.8716 15.0132 8.00049C15.0132 4.12915 11.8713 0.987305 8.00006 0.987305ZM11.2542 5.75635C11.149 6.86426 10.6931 9.55737 10.4617 10.7986C10.3635 11.3247 10.1671 11.5 9.9848 11.521C9.57806 11.5562 9.26947 11.2546 8.87671 10.9951C8.25958 10.5884 7.90894 10.3359 7.31281 9.94312C6.61847 9.4873 7.06732 9.23486 7.4671 8.82788C7.57227 8.7229 9.36761 7.08862 9.40271 6.94141C9.40759 6.91919 9.40692 6.896 9.40082 6.87402C9.39471 6.85205 9.3833 6.83179 9.36761 6.81519C9.32556 6.78027 9.26947 6.79419 9.2204 6.80127C9.15723 6.81519 8.17542 7.46753 6.2608 8.75781C5.98029 8.94727 5.72784 9.04541 5.50342 9.03833C5.25092 9.03149 4.77405 8.89819 4.41638 8.77881C3.97455 8.63867 3.63092 8.56152 3.65894 8.31592C3.67297 8.1897 3.84833 8.06348 4.17792 7.93042C6.22577 7.03955 7.5863 6.45044 8.2666 6.16992C10.2162 5.35645 10.616 5.21631 10.8825 5.21631C10.9386 5.21631 11.0718 5.23022 11.156 5.30029C11.2261 5.35645 11.2472 5.43359 11.2542 5.48975C11.2472 5.53174 11.2612 5.65796 11.2542 5.75635Z" fill="#25A4E2" fill-opacity="1.000000" fill-rule="nonzero"/>
	</g>
</svg>
