<svg width="10.500000" height="13.124512" viewBox="0 0 10.5 13.1245" fill="none" xmlns="http://www.w3.org/2000/svg" xmlns:xlink="http://www.w3.org/1999/xlink">
	<desc>
			Created with Pixso.
	</desc>
	<defs/>
	<path id="Vector" d="M1.41998 0.0375977C0.9039 0.151367 0.443085 0.51709 0.194244 1.0083C-0.0146484 1.4292 -0.00543213 1.08545 0.00378418 6.61816L0.0130005 11.6191L0.0805969 11.8188C0.283356 12.4116 0.750275 12.8726 1.33398 13.0571L1.54901 13.1245L5.25079 13.1245L8.95258 13.1245L9.19833 13.0415C9.79428 12.8389 10.1814 12.4546 10.424 11.8188C10.4886 11.6499 10.4886 11.6313 10.4978 8.07129C10.5039 5.46924 10.4978 4.44287 10.4732 4.30762C10.4302 4.0957 10.3043 3.8042 10.166 3.60107C10.08 3.4751 7.34589 0.655273 7.11243 0.452637C6.9404 0.301758 6.71307 0.175781 6.46423 0.0898438L6.21848 0.00683594L3.91446 0.000976562C2.05591 -0.00244141 1.57358 0.00390625 1.41998 0.0375977ZM5.41052 5.36768C5.55185 5.40771 5.73309 5.604 5.76074 5.75146C5.80374 5.979 5.73001 6.1665 5.54568 6.30176C5.46582 6.36279 5.41669 6.36621 4.33533 6.37549C3.71478 6.38135 3.1618 6.37549 3.10654 6.36621C2.96521 6.34131 2.7778 6.14795 2.7348 5.98828C2.66724 5.74561 2.78702 5.50293 3.02051 5.39551C3.13416 5.34326 3.2417 5.33691 4.22165 5.33691C4.85449 5.33691 5.34296 5.34912 5.41052 5.36768ZM7.48721 8.0835C7.93573 8.31982 7.85587 8.94678 7.36432 9.0542C7.24759 9.07861 6.61475 9.08496 5.15863 9.07861C3.22327 9.06934 3.10959 9.06641 2.99899 9.01123C2.6488 8.83887 2.61807 8.3291 2.94678 8.11084L3.04816 8.04053L5.2262 8.04053C7.04178 8.04053 7.41656 8.04639 7.48721 8.0835Z" fill="#FCFCFC" fill-opacity="1.000000" fill-rule="evenodd"/>
</svg>
