<svg width="16.000000" height="16.000000" viewBox="0 0 16 16" fill="none" xmlns="http://www.w3.org/2000/svg" xmlns:xlink="http://www.w3.org/1999/xlink">
	<desc>
			Created with Pixso.
	</desc>
	<defs>
		<clipPath id="clip42_571">
			<rect id="Social_btn_icon" width="16.000000" height="16.000000" fill="white" fill-opacity="0"/>
		</clipPath>
	</defs>
	<g clip-path="url(#clip42_571)">
		<path id="Vector" d="M7.99994 0.467773C3.84015 0.467773 0.468079 3.83984 0.468079 7.99976C0.468079 12.1594 3.84015 15.5315 7.99994 15.5315C12.1597 15.5315 15.5318 12.1594 15.5318 7.99976C15.5318 3.83984 12.1597 0.467773 7.99994 0.467773ZM10.8966 8.96533C10.8966 8.96533 11.5627 9.6228 11.7266 9.92822C11.7314 9.93433 11.7337 9.94067 11.7353 9.94385C11.8019 10.0559 11.8177 10.1431 11.7847 10.2083C11.7298 10.3164 11.5415 10.3699 11.4772 10.3745L10.3003 10.3745C10.2187 10.3745 10.0477 10.3533 9.84058 10.2104C9.68127 10.0991 9.52435 9.91626 9.3714 9.73828C9.14307 9.47314 8.94537 9.2439 8.74609 9.2439C8.72076 9.2439 8.69562 9.2478 8.67151 9.25586C8.52087 9.30444 8.32788 9.51929 8.32788 10.092C8.32788 10.271 8.18665 10.3738 8.08704 10.3738L7.54803 10.3738C7.36444 10.3738 6.40808 10.3093 5.56073 9.41577C4.5235 8.32129 3.5899 6.12598 3.58203 6.10571C3.52319 5.96362 3.64478 5.8877 3.7774 5.8877L4.966 5.8877C5.12451 5.8877 5.17627 5.98413 5.21234 6.06958C5.25476 6.16919 5.4101 6.56543 5.66504 7.01099C6.07855 7.73755 6.33197 8.03271 6.53516 8.03271C6.57324 8.03223 6.61066 8.02246 6.64423 8.00439C6.90942 7.85693 6.85999 6.91138 6.84821 6.71533C6.84821 6.67847 6.84741 6.29248 6.71167 6.10718C6.61438 5.97314 6.44885 5.92212 6.34845 5.90332C6.3891 5.84717 6.44263 5.80176 6.50458 5.77075C6.68658 5.67969 7.01453 5.66626 7.34015 5.66626L7.52136 5.66626C7.87439 5.67114 7.96545 5.69385 8.09332 5.72607C8.35223 5.78784 8.35773 5.95508 8.33496 6.5271C8.32788 6.68945 8.32086 6.87305 8.32086 7.0896C8.32086 7.13672 8.31848 7.18677 8.31848 7.24023C8.31061 7.53125 8.30121 7.86157 8.50677 7.99731C8.53357 8.01416 8.56458 8.02295 8.59619 8.02319C8.6676 8.02319 8.88257 8.02319 9.46472 7.02441C9.64429 6.70288 9.80029 6.3689 9.93158 6.0249C9.9433 6.00439 9.97784 5.94165 10.0186 5.91748C10.0488 5.9021 10.0822 5.89429 10.1159 5.89453L11.5132 5.89453C11.6655 5.89453 11.7698 5.91748 11.7894 5.97632C11.8239 6.06958 11.7831 6.35449 11.1453 7.21826L10.8605 7.59399C10.2823 8.35181 10.2823 8.39038 10.8966 8.96533Z" fill="#4C75A3" fill-opacity="1.000000" fill-rule="nonzero"/>
	</g>
</svg>
