<svg width="14.049225" height="14.049316" viewBox="0 0 14.0492 14.0493" fill="none" xmlns="http://www.w3.org/2000/svg" xmlns:xlink="http://www.w3.org/1999/xlink">
	<desc>
			Created with Pixso.
	</desc>
	<defs>
		<linearGradient id="paint_linear_42_561_0" x1="11.701999" y1="1.103806" x2="-0.000003" y2="14.049250" gradientUnits="userSpaceOnUse">
			<stop stop-color="#52CD5F"/>
			<stop offset="1.000000" stop-color="#28B43E"/>
		</linearGradient>
	</defs>
	<path id="Vector" d="M7.02463 0C10.9043 0 14.0492 3.14502 14.0492 7.02466C14.0492 10.9043 10.9043 14.0493 7.02463 14.0493C5.7832 14.0513 4.56366 13.7227 3.49124 13.0974L0.00280762 14.0493L0.952545 10.5593C0.326721 9.48657 -0.0020752 8.2666 0 7.02466C0 3.14502 3.14493 0 7.02463 0ZM4.63065 3.72314L4.49014 3.72876C4.3992 3.73413 4.3103 3.75806 4.22882 3.79883C4.15262 3.84204 4.08307 3.896 4.02231 3.95898C3.93802 4.03833 3.89023 4.10718 3.83896 4.17407C3.57913 4.51172 3.43924 4.92651 3.44138 5.35278C3.44278 5.69702 3.53268 6.03198 3.67319 6.34521C3.96048 6.979 4.43323 7.6499 5.05704 8.27148C5.20737 8.42114 5.35486 8.57153 5.51361 8.71118C6.28873 9.39355 7.21234 9.88574 8.21106 10.1484L8.61008 10.2095C8.74002 10.2166 8.87 10.2068 9.00064 10.2004C9.20523 10.1899 9.405 10.1345 9.58578 10.0381C9.67776 9.99072 9.76755 9.93921 9.85483 9.88354C9.85483 9.88354 9.88504 9.86401 9.94263 9.82031C10.0375 9.75024 10.0958 9.7002 10.1744 9.61816C10.2328 9.55762 10.2833 9.48682 10.322 9.40601C10.3768 9.2915 10.4315 9.073 10.454 8.89111C10.4709 8.75195 10.466 8.67603 10.4639 8.62915C10.4611 8.55396 10.3985 8.47583 10.3304 8.44287L9.92157 8.25952C9.92157 8.25952 9.31042 7.99341 8.93671 7.82324C8.89761 7.80615 8.85571 7.79639 8.81308 7.79443C8.76501 7.78955 8.71646 7.79492 8.67065 7.8103C8.62485 7.82568 8.58289 7.85083 8.54755 7.88379C8.54404 7.88232 8.49698 7.92236 7.98911 8.5376C7.95993 8.5769 7.9198 8.60645 7.87375 8.6228C7.82773 8.63892 7.77786 8.64111 7.73059 8.62915C7.68484 8.6167 7.63998 8.60132 7.59644 8.58276C7.50931 8.54614 7.4791 8.53198 7.4194 8.50684C7.01624 8.33081 6.64297 8.09326 6.31302 7.80225C6.22452 7.72485 6.14233 7.64062 6.05804 7.55908C5.78168 7.29443 5.54083 6.99512 5.34152 6.66846L5.30008 6.60181C5.27029 6.55688 5.24625 6.50854 5.22842 6.45776C5.20172 6.35449 5.27127 6.27148 5.27127 6.27148C5.27127 6.27148 5.44199 6.08472 5.52136 5.98364C5.59863 5.88525 5.66394 5.78979 5.70609 5.72144C5.789 5.58813 5.81497 5.45117 5.77142 5.34497C5.57474 4.8645 5.37103 4.38623 5.16168 3.91138C5.12024 3.81714 4.99731 3.74976 4.88562 3.73633C4.84769 3.73218 4.80975 3.72803 4.77182 3.7251C4.67749 3.72046 4.58295 3.72144 4.48874 3.72803L4.62994 3.72241L4.63065 3.72314Z" fill="url(#paint_linear_42_561_0)" fill-opacity="1.000000" fill-rule="nonzero"/>
</svg>
